<?xml version="1.0" standalone="no"?>
<!DOCTYPE svg PUBLIC "-//W3C//DTD SVG 20010904//EN"
 "http://www.w3.org/TR/2001/REC-SVG-20010904/DTD/svg10.dtd">
<svg version="1.0" xmlns="http://www.w3.org/2000/svg"
 width="1024.000000pt" height="1024.000000pt" viewBox="0 0 1024.000000 1024.000000"
 preserveAspectRatio="xMidYMid meet">

<g transform="translate(0.000000,1024.000000) scale(0.100000,-0.100000)"
fill="#000000"
stroke="none">
<path d="M5235 7770 c-88 -11 -272 -35 -410 -55 -137 -19 -387 -53 -555 -75
-168 -22 -390 -51 -495 -64 -104 -14 -408 -53 -675 -86 -267 -33 -540 -72
-607 -85 -372 -75 -537 -184 -602 -400 -20 -64 -22 -93 -22 -365 -1 -325 2
-350 59 -433 29 -41 30 -46 15 -58 -9 -8 -26 -34 -37 -59 -20 -42 -21 -65 -24
-354 -3 -287 -2 -313 17 -375 11 -37 34 -87 52 -110 31 -43 31 -43 10 -58 -50
-34 -51 -46 -50 -445 1 -631 16 -1214 33 -1289 35 -160 98 -272 216 -387 243
-239 1022 -798 1303 -937 224 -111 402 -159 647 -175 289 -19 554 13 1526 180
127 22 338 58 470 80 472 81 1231 221 1349 249 478 116 693 277 762 571 16 69
18 145 18 895 l0 820 -22 45 c-22 43 -22 45 -4 65 61 66 74 164 69 522 -3 253
-4 270 -25 313 -12 25 -28 53 -35 62 -10 14 -9 20 5 35 41 46 47 93 47 382 0
301 -6 350 -57 443 -36 66 -131 153 -245 224 -51 32 -244 130 -428 219 -184
89 -495 240 -690 335 -563 274 -640 306 -855 356 -111 25 -139 28 -360 30
-189 2 -274 -1 -400 -16z m600 -81 c223 -27 352 -76 885 -335 212 -102 502
-242 645 -311 586 -280 704 -354 769 -480 41 -82 48 -147 44 -423 -4 -315 1
-303 -138 -372 -178 -89 -447 -152 -1220 -287 -546 -95 -1557 -252 -2030 -315
-380 -51 -491 -59 -720 -53 -398 10 -508 51 -1053 395 -146 92 -743 516 -875
622 -182 146 -186 158 -180 563 4 241 6 266 26 317 48 121 126 188 276 240
184 64 286 80 1331 211 193 24 946 123 1361 179 166 22 341 44 390 49 132 12
386 13 489 0z m-3400 -1877 c530 -380 778 -542 980 -638 239 -115 362 -139
705 -139 279 0 387 11 900 85 1182 172 2365 375 2719 466 117 30 233 68 325
106 38 15 73 28 77 28 5 0 16 -15 26 -32 16 -30 18 -63 15 -368 -3 -314 -4
-338 -23 -378 -49 -101 -227 -188 -539 -261 -463 -110 -1539 -296 -2570 -445
-585 -85 -817 -104 -1066 -87 -429 28 -627 120 -1314 607 -381 271 -620 477
-670 579 -25 49 -25 54 -28 350 -3 306 2 371 35 407 15 17 19 16 62 -16 25
-19 190 -138 366 -264z m-359 -703 c87 -92 356 -298 689 -529 429 -297 666
-418 919 -470 241 -49 540 -53 911 -9 534 62 1740 252 2435 385 602 114 833
174 1019 261 55 26 76 32 85 23 16 -16 22 -800 6 -876 -15 -70 -54 -111 -158
-163 -201 -101 -391 -148 -1202 -301 -454 -85 -1496 -248 -2010 -314 -311 -40
-445 -49 -669 -43 -398 11 -582 74 -999 344 -336 218 -812 577 -982 742 -118
114 -114 99 -118 553 -3 388 0 428 31 428 8 0 26 -14 43 -31z m-16 -972 c164
-199 984 -799 1330 -974 334 -169 703 -205 1306 -128 941 120 2402 368 2888
491 238 60 437 136 519 198 19 14 37 26 42 26 4 0 5 -138 2 -307 -5 -329 -13
-395 -60 -496 -88 -189 -319 -319 -711 -402 -129 -28 -673 -127 -1071 -195
-132 -22 -314 -54 -405 -70 -303 -54 -1194 -199 -1300 -212 -164 -20 -555 -17
-660 5 -300 63 -505 167 -945 475 -523 366 -809 609 -888 752 -66 120 -78 183
-87 480 -11 340 -12 400 -2 399 4 0 23 -19 42 -42z"/>
<path d="M4665 7242 c-21 -5 -30 -13 -30 -27 0 -18 8 -20 71 -23 55 -2 74 1
84 13 8 10 10 19 4 25 -13 13 -92 20 -129 12z"/>
<path d="M5003 7190 c-73 -29 47 -69 121 -40 32 12 34 36 4 44 -33 8 -99 6
-125 -4z"/>
<path d="M5359 7134 c-19 -23 4 -34 73 -34 64 0 88 7 88 25 0 18 -24 25 -90
25 -40 0 -61 -5 -71 -16z"/>
<path d="M4413 7120 c-70 -28 40 -66 125 -44 25 7 30 39 6 48 -23 9 -105 6
-131 -4z"/>
<path d="M5757 7093 c-28 -7 -16 -36 20 -46 67 -20 166 16 122 44 -14 9 -110
10 -142 2z"/>
<path d="M4795 7057 c-25 -19 -13 -34 34 -42 75 -12 152 20 110 46 -22 14
-123 11 -144 -4z"/>
<path d="M6152 7029 c-56 -22 11 -54 90 -43 27 3 51 11 55 16 18 31 -88 50
-145 27z"/>
<path d="M2172 7018 c7 -21 186 -177 309 -269 349 -263 827 -541 1051 -613
268 -85 547 -102 972 -60 412 41 1826 237 2381 330 523 87 945 186 945 220 0
20 -18 18 -242 -25 -343 -67 -871 -152 -1368 -221 -162 -22 -325 -45 -361 -50
-551 -80 -1357 -178 -1565 -190 -280 -16 -526 8 -726 70 -226 69 -917 479
-1311 776 -56 43 -93 56 -85 32z"/>
<path d="M5165 7006 c-31 -24 -2 -37 80 -34 62 3 70 5 70 23 0 18 -8 20 -65
23 -46 2 -71 -2 -85 -12z"/>
<path d="M5515 6957 c-25 -19 -13 -34 34 -42 75 -12 152 20 110 46 -22 14
-123 11 -144 -4z"/>
<path d="M5888 6899 c-28 -16 -21 -27 21 -39 72 -19 165 12 120 41 -19 12
-120 11 -141 -2z"/>
<path d="M6343 6859 c-35 -10 -44 -33 -17 -43 28 -11 130 -6 142 6 19 19 14
26 -25 37 -44 13 -57 13 -100 0z"/>
<path d="M2132 5908 c8 -26 563 -431 871 -637 576 -386 869 -435 1837 -310
1307 168 3061 490 3185 583 18 14 18 15 2 16 -10 0 -34 -7 -55 -16 -208 -88
-1723 -363 -2877 -523 -574 -80 -699 -91 -999 -91 -522 0 -706 83 -1591 720
-71 51 -183 133 -248 182 -64 48 -120 88 -123 88 -3 0 -4 -6 -2 -12z"/>
<path d="M3354 4763 c-7 -77 -1 -218 13 -283 6 -33 7 -34 14 -10 9 32 11 263
3 324 -4 25 -10 46 -15 46 -4 0 -11 -35 -15 -77z"/>
<path d="M6068 4129 c-15 -8 -18 -26 -18 -121 l0 -110 -36 6 c-96 19 -213 -59
-247 -163 -65 -201 86 -344 242 -230 42 30 42 30 59 9 12 -13 24 -18 39 -14
31 8 35 56 31 369 l-3 260 -25 2 c-14 2 -33 -2 -42 -8z m-20 -403 c3 -91 1
-101 -20 -123 -50 -53 -117 -68 -158 -35 -51 42 -32 183 32 237 26 22 39 25
87 23 l56 -3 3 -99z"/>
<path d="M6845 4031 c-49 -23 -99 -74 -119 -123 -21 -50 -21 -160 0 -204 28
-58 68 -79 150 -79 61 0 77 4 120 30 71 45 106 106 111 198 4 61 1 79 -19 116
-14 27 -36 52 -58 63 -46 24 -132 23 -185 -1z m146 -80 c25 -26 29 -37 29 -88
0 -70 -22 -119 -69 -150 -66 -45 -132 -23 -152 49 -22 82 10 170 72 201 51 25
86 21 120 -12z"/>
<path d="M5573 4016 c-24 -21 -26 -27 -18 -52 12 -32 49 -43 85 -24 37 20 18
100 -25 100 -8 0 -26 -11 -42 -24z"/>
<path d="M5108 3989 c-17 -9 -18 -35 -18 -319 l0 -310 29 0 c58 0 61 5 61 99
0 47 4 92 9 99 6 10 33 -10 102 -73 88 -81 96 -86 128 -81 19 3 39 10 44 15
10 10 8 12 -111 124 l-73 68 87 94 c91 99 100 125 45 125 -32 0 -54 -18 -150
-127 -35 -40 -68 -70 -73 -67 -5 3 -8 78 -8 167 0 89 1 170 0 180 0 19 -43 23
-72 6z"/>
<path d="M6380 3967 c-53 -17 -124 -93 -138 -149 -26 -102 -11 -178 47 -232
25 -25 42 -30 91 -34 81 -6 138 17 188 73 45 52 62 100 62 181 0 112 -58 175
-159 173 -31 -1 -72 -6 -91 -12z m136 -78 c36 -30 40 -138 7 -202 -32 -64
-120 -86 -170 -43 -26 23 -28 29 -28 104 0 72 3 83 25 107 47 52 126 68 166
34z"/>
<path d="M5573 3844 c-10 -4 -13 -56 -13 -210 l0 -204 34 0 c18 0 39 6 45 14
8 9 11 73 9 207 l-3 194 -30 2 c-16 1 -36 0 -42 -3z"/>
</g>
</svg>
